REM MD5 03457edb8135a656efe45bd5991c5039
FILE "Hyper PlayStation Re-mix 1999 No. 11 (Japan).bin" BINARY
  TRACK 01 MODE2/2352
    INDEX 01 00:00:00
  TRACK 02 AUDIO
    INDEX 00 47:38:74
    INDEX 01 47:41:74
  TRACK 03 AUDIO
    INDEX 00 47:46:49
    INDEX 01 47:49:49
REM LEADOUT 51:21:39
